<?xml version="1.0" encoding="UTF-8"?>
<svg version="1.1" xmlns="http://www.w3.org/2000/svg" width="2000" height="2000">
<path d="M0 0 C3.25735649 -0.00621585 6.51468231 -0.01611337 9.77202606 -0.02705765 C49.90414763 -0.15329418 49.90414763 -0.15329418 68.20250702 1.06794357 C69.37816223 1.14567505 70.55381744 1.22340652 71.76509857 1.3034935 C79.51449862 1.91526089 79.51449862 1.91526089 82.91344452 4.18122482 C84.42178659 4.66001964 85.94496724 5.09316415 87.47594452 5.49372482 C94.77524734 7.60977454 101.81089342 10.37487357 106.91344452 16.18122482 C107.97306707 17.01821391 109.03598329 17.85103914 110.10094452 18.68122482 C125.55116843 32.02310261 132.02337451 53.10100688 139.26500702 71.50153732 C141.96345755 78.34525862 144.77388241 85.13981444 147.60094452 91.93122482 C153.87738173 107.03651703 160.01860075 122.19553897 166.15229034 137.35924911 C168.92997389 144.22536082 171.71764466 151.08738666 174.50765228 157.94849777 C179.78072328 170.91672812 185.03734959 183.89158182 190.28844452 196.86872482 C195.4319731 209.57997068 200.57647038 222.29081764 205.72808075 234.99879074 C206.35058914 236.53444683 206.97302591 238.07013196 207.59539032 239.60584641 C210.83991658 247.61183418 214.08873558 255.61601801 217.35094452 263.61481857 C218.45544778 266.32431692 219.55956205 269.0339735 220.66344452 271.74372482 C220.92895111 272.39523514 221.1944577 273.04674545 221.46800995 273.7179985 C224.35155458 280.79873447 227.20599116 287.88943968 229.99156952 295.00934982 C230.3642395 295.96169762 230.3642395 295.96169762 230.74443817 296.93328476 C231.91024274 299.91620753 233.07080913 302.90105077 234.22496796 305.88850021 C236.10680045 310.73006887 238.03116139 315.51546927 240.22594452 320.22419357 C243.27176885 326.82122433 245.90612094 333.57299588 248.58483124 340.32477951 C251.18757112 346.88499815 253.83334922 353.42762581 256.47985077 359.97028732 C257.4701201 362.42079403 258.46035406 364.87131503 259.45055389 367.32184982 C260.96581186 371.07112065 262.48150329 374.82021543 263.99816132 378.56892014 C265.4932979 382.26470859 266.98692941 385.96110338 268.47985077 389.65778732 C269.19656448 391.43225235 269.19656448 391.43225235 269.92775726 393.24256516 C272.60966885 399.89792373 275.24231734 406.56919693 277.81578827 413.26716232 C279.92595818 418.75732732 282.19541179 424.13304878 284.68444061 429.46247482 C286.95437561 434.48392818 288.93959033 439.62283243 290.96248627 444.74766159 C292.27039588 448.06012293 293.58728736 451.36899868 294.90563202 454.67731857 C295.29442787 455.65305077 295.29442787 455.65305077 295.69107819 456.64849472 C297.84591614 462.04177391 300.07551834 467.40040221 302.35094452 472.74372482 C304.91723435 478.77279677 307.36534331 484.82831207 309.68297577 490.95856857 C312.01407563 497.06383011 314.47340313 503.11885394 316.91344452 509.18122482 C316.29892911 502.09274373 314.90236231 495.44825041 313.14781952 488.56013107 C312.87254425 487.46136139 312.59726898 486.36259171 312.31365204 485.23052597 C311.73136081 482.91106726 311.14624462 480.59231612 310.55846405 478.2742424 C309.67443971 474.78709674 308.799009 471.29788655 307.92516327 467.80817795 C305.53115637 458.2813408 303.12086815 448.76487819 300.44078827 439.31403732 C297.07827814 427.43980896 294.18464967 415.44320314 291.21534729 403.46605682 C289.71235635 397.40888408 288.2009133 391.35380949 286.69078827 385.29841232 C286.44277843 384.30349053 286.44277843 384.30349053 286.1897583 383.28846931 C283.43055466 372.22119354 280.63320721 361.16431043 277.78844452 350.11872482 C277.59434998 349.36450241 277.40025543 348.61028 277.20027924 347.83320236 C276.40444681 344.74082023 275.60830911 341.64851697 274.81165314 338.55634689 C272.12397887 328.12220097 269.45359317 317.68364472 266.78844452 307.24372482 C266.52231354 306.20167892 266.25618256 305.15963303 265.981987 304.08600998 C262.51700976 290.51010275 259.0921117 276.92455192 255.70250702 263.32966232 C255.52408138 262.61432516 255.34565575 261.898988 255.16182327 261.16197395 C253.39768693 254.0890715 251.63541636 247.01571782 249.88067436 239.94047832 C246.88298857 227.85907796 243.88231729 215.78799942 240.49034882 203.81023788 C238.75973926 197.69617894 237.28718405 191.54509517 235.88610077 185.34919357 C234.81963363 180.73764255 233.64276564 176.17440662 232.34893036 171.62096786 C228.43173646 157.82566279 225.07910302 143.88787378 221.67498016 129.95942307 C220.98652511 127.1456372 220.29518516 124.33256354 219.60378647 121.51949978 C218.93372092 118.79249929 218.26483173 116.06521145 217.59635925 113.33782005 C217.12641314 111.42060213 216.65595118 109.50351067 216.18547821 107.58642197 C215.90138092 106.4236322 215.61728363 105.26084244 215.32457733 104.06281662 C215.07540558 103.04455292 214.82623383 102.02628922 214.56951141 100.97716904 C209.5777199 79.70377344 213.91655157 59.77132123 224.91344452 41.18122482 C235.35008384 24.4434592 248.91202574 11.46845898 267.91344452 5.18122482 C269.06844452 4.78934982 270.22344452 4.39747482 271.41344452 3.99372482 C272.23844452 3.72559982 273.06344452 3.45747482 273.91344452 3.18122482 C274.57344452 2.85122482 275.23344452 2.52122482 275.91344452 2.18122482 C284.84899994 0.79778614 293.89102436 0.94307657 302.91173553 0.85163498 C304.82627903 0.82961932 306.74082152 0.80751488 308.65536308 0.78533173 C315.22177708 0.7123892 321.78829078 0.65332706 328.35485077 0.59528732 C329.52176177 0.58457089 330.68867278 0.57385446 331.89094472 0.56281328 C415.34297498 -0.19918148 498.80338265 0.24945939 582.25703116 0.48807099 C600.01415446 0.53875192 617.77128494 0.5833111 635.52843475 0.62360764 C656.40131877 0.6709806 677.27419082 0.72148775 698.14705378 0.77743304 C700.36263151 0.78336645 702.57820926 0.78929779 704.793787 0.79522705 C705.88283644 0.79814544 706.97188588 0.80106382 708.09393681 0.80407064 C715.743114 0.82436756 723.39229456 0.84246376 731.04147911 0.85973358 C740.28445155 0.88068158 749.52740623 0.9051949 758.77035647 0.93438004 C763.47595125 0.94915485 768.18153607 0.96231131 772.887146 0.97118568 C777.18251646 0.97933376 781.47784768 0.99201874 785.77319414 1.00847085 C787.33243324 1.01362782 788.89167905 1.01707254 790.45092582 1.01870804 C792.55486137 1.02116207 794.65868471 1.02964487 796.76259518 1.03976631 C797.93483495 1.04296643 799.10707473 1.04616654 800.31483692 1.04946363 C802.91344452 1.18122482 802.91344452 1.18122482 803.91344452 2.18122482 C804.01241487 4.1648196 804.03943425 6.15200641 804.03994435 8.13806862 C804.04270409 9.44421311 804.04546384 10.75035761 804.04830721 12.09608224 C804.04631886 13.56755271 804.04423937 15.03902305 804.04207897 16.51049328 C804.04342377 18.06299341 804.0452066 19.61549321 804.04739121 21.16799238 C804.05215426 25.47392381 804.05060896 29.77983428 804.04811343 34.08576679 C804.04648954 38.75523264 804.05061348 43.42469383 804.05402261 48.09415823 C804.05919293 56.2911532 804.060591 64.48814226 804.0595665 72.6851387 C804.05804676 84.87401983 804.06219175 97.06289438 804.06744112 109.25177424 C804.07713233 132.28313802 804.07992602 155.3144996 804.08049818 178.34586518 C804.08095699 196.12519426 804.08301149 213.90452245 804.08619881 231.68385124 C804.08709629 236.79388811 804.08798611 241.90392498 804.08887368 247.01396185 C804.08909473 248.28417891 804.08931578 249.55439596 804.08954353 250.86310444 C804.09570115 286.61124676 804.09964963 322.35938873 804.09920025 358.10753155 C804.09918447 359.47004305 804.09916873 360.83255454 804.09915304 362.19506604 C804.09907965 368.34701813 804.09899148 374.49897023 804.09889916 380.65092232 C804.09885803 383.39436805 804.09881789 386.13781379 804.09877784 388.88125953 C804.09875745 390.25440521 804.09873643 391.6275509 804.09871478 393.00069658 C804.09803438 436.43091195 804.10535369 479.86111916 804.11925507 523.29133224 C804.1227559 534.23454632 804.12622528 545.1777604 804.12951946 556.12097454 C804.12972234 556.79473314 804.12992521 557.46849174 804.13013423 558.16266727 C804.1410136 594.51302055 804.14299691 630.86337413 804.14229184 667.21372896 C804.14221721 672.32408019 804.1421685 677.43443141 804.14213753 682.54478264 C804.14212005 684.43236103 804.14212005 684.43236103 804.14210221 686.35807231 C804.14207137 706.65495274 804.14847148 726.95182633 804.15706979 747.24870472 C804.16552501 767.62855468 804.16655302 788.00839455 804.15996047 808.38824528 C804.15625057 820.51212167 804.15813985 832.63596754 804.16790281 844.75984074 C804.17386528 852.84379369 804.17264936 860.92772434 804.16543231 869.01167624 C804.16151894 873.62722082 804.16086553 878.24270597 804.16888966 882.85824656 C804.17611144 887.04864675 804.17430034 891.23893745 804.1649658 895.42933257 C804.16322988 896.94398591 804.16491965 898.45864759 804.170267 899.97329249 C804.17699878 902.01519596 804.17040493 904.05713076 804.16299218 906.09903187 C804.1630804 907.23403511 804.16316862 908.36903835 804.16325952 909.53843563 C803.91344452 912.18122482 803.91344452 912.18122482 801.91344452 914.18122482 C799.30525404 914.43077248 799.30525404 914.43077248 795.91964817 914.43011379 C794.6335934 914.43471259 793.34753863 914.43931138 792.0225125 914.44404954 C790.5817827 914.43903364 789.14105354 914.43383136 787.70032501 914.42846298 C786.18026126 914.43004985 784.66019821 914.43251223 783.14013714 914.43577939 C778.94727623 914.44221921 774.75451124 914.43610439 770.56165659 914.42801511 C766.04541685 914.42145754 761.52918818 914.42638249 757.01294708 914.42989731 C748.15683349 914.4349494 739.30075712 914.42928414 730.44464815 914.42004701 C720.1318962 914.40967666 709.81915236 914.40973288 699.50639617 914.41021959 C681.09950923 914.41072075 662.69263964 914.40154606 644.28575897 914.38703537 C626.4286594 914.37296537 608.5715751 914.36586378 590.71446991 914.36652756 C589.06680469 914.36658749 589.06680469 914.36658749 587.3858533 914.36664864 C586.28930613 914.36668899 585.19275896 914.36672935 584.0629831 914.36677092 C563.73994718 914.36746152 543.41691776 914.36156396 523.09388395 914.35261771 C515.90853445 914.34960446 508.72318614 914.34853849 501.53783607 914.3480854 C492.77192237 914.34740193 484.00601959 914.34291914 475.24011052 914.33375259 C470.76896677 914.32914686 466.29783696 914.32608454 461.82669067 914.3273468 C457.72872934 914.32844755 453.63079875 914.32488871 449.53284382 914.31769828 C448.05492604 914.31589567 446.57700506 914.3157441 445.09908719 914.31746557 C428.2361731 914.33492314 413.95615033 913.87296131 400.71031952 902.24763107 C388.39525362 889.43902246 385.33917337 872.21312547 385.53844452 855.05622482 C385.54787079 853.78722336 385.55729706 852.51822189 385.56700897 851.21076584 C385.73055609 840.94639246 386.71234911 831.19642947 388.91344452 821.18122482 C389.14692596 820.05853195 389.14692596 820.05853195 389.38512421 818.91315842 C394.5088208 794.68042574 404.06806747 771.42690033 412.9151535 748.35920334 C416.74835675 738.35522457 420.39739796 728.30100015 423.91344452 718.18122482 C424.2271701 717.27904221 424.54089569 716.37685959 424.86412811 715.4473381 C425.34944676 714.04970635 425.83458137 712.65201067 426.31945038 711.25422287 C428.18730412 705.88961354 430.10680984 700.59037152 432.35094452 695.36872482 C434.44856828 690.45448048 436.24097539 685.48105116 437.97594452 680.43122482 C441.07740665 671.40743437 444.41179814 662.4794557 447.78844452 653.55622482 C452.03723024 642.32379517 456.12231135 631.05597469 459.97154999 619.67878342 C461.74379181 614.45855337 463.63007179 609.32699542 465.70836639 604.22175217 C468.32215476 597.62691417 470.74308258 590.95707628 473.19664764 584.30134201 C474.17183147 581.65849534 475.15195792 579.01751343 476.13219452 576.37653732 C476.75228842 574.69696138 477.37209091 573.01727781 477.99156952 571.33747482 C478.43209656 570.15320908 478.43209656 570.15320908 478.88152313 568.94501877 C480.37709577 565.16377765 480.37709577 565.16377765 480.91344452 561.18122482 C480.57611298 561.81101242 480.23878143 562.44080002 479.89122772 563.08967209 C478.34106391 565.97703452 476.78357066 568.8603817 475.22594452 571.74372482 C474.6954953 572.73436935 474.16504608 573.72501389 473.61852264 574.74567795 C469.12460498 583.04426209 469.12460498 583.04426209 466.33141327 586.77106857 C463.81058868 590.14428737 462.06698488 593.76265904 460.23522186 597.54401779 C457.96277652 602.07799538 455.33247056 606.39600978 452.72594452 610.74372482 C451.56961156 612.6876859 450.41336239 614.63169681 449.25719452 616.57575607 C448.1426203 618.44425109 447.02803749 620.31274099 445.91344452 622.18122482 C440.32386717 631.57503455 434.8651341 641.02020644 429.59020233 650.5945549 C426.62699394 655.95188252 423.53777239 661.21677679 420.36486053 666.45197678 C414.18202994 676.6656326 408.28924389 687.05194014 402.33531952 697.39997482 C395.82995579 708.70014201 389.28635885 719.97336333 382.62804413 731.18415451 C378.36387156 738.3790819 374.21659101 745.63681197 370.08727264 752.90974045 C366.78302297 758.71092645 363.34380277 764.39854812 359.81188202 770.06403732 C357.35570473 774.09701979 355.05413191 778.20969425 352.75597382 782.33356857 C347.19383285 792.29630694 341.44880283 802.15496878 335.73522186 812.03132248 C334.05990241 814.92799517 332.38665202 817.82584982 330.71422577 820.72419357 C306.42978253 862.7891852 306.42978253 862.7891852 290.91344452 879.18122482 C290.25473358 879.88118576 289.59602264 880.5811467 288.91735077 881.30231857 C282.35762471 888.07322294 275.01460612 894.32052786 266.91344452 899.18122482 C266.25344452 899.18122482 265.59344452 899.18122482 264.91344452 899.18122482 C264.91344452 899.84122482 264.91344452 900.50122482 264.91344452 901.18122482 C257.70529684 904.62375594 250.60876278 907.99192644 242.91344452 910.18122482 C241.54639374 910.58147873 241.54639374 910.58147873 240.15172577 910.98981857 C228.32444793 914.2210618 216.38893151 914.33057028 204.19738007 914.31493759 C202.21978006 914.31833593 202.21978006 914.31833593 200.20222855 914.32180291 C196.58134156 914.32786091 192.96047786 914.32779452 189.33958697 914.32660854 C185.42011591 914.32640302 181.50065203 914.3319372 177.58118439 914.33666611 C169.92041486 914.34493763 162.25965302 914.34771926 154.5988794 914.34827849 C148.37402141 914.34875483 142.14916596 914.35081545 135.92430878 914.35397911 C118.26309513 914.36277217 100.60188754 914.36740001 82.94067168 914.36664864 C81.99050996 914.36660868 81.04034824 914.36656872 80.06139374 914.36652756 C79.11006947 914.36648668 78.1587452 914.3664458 77.17859292 914.36640368 C61.73102181 914.36599645 46.28347499 914.37558866 30.83591092 914.38966592 C14.96218929 914.40401731 -0.91152047 914.41093695 -16.78524876 914.41007215 C-25.69263042 914.40974 -34.59998655 914.41249572 -43.50736237 914.4232502 C-51.08266065 914.43233837 -58.65792178 914.43454394 -66.23322314 914.42774078 C-70.0981675 914.42446849 -73.9630405 914.42444462 -77.82797813 914.43309402 C-82.01415991 914.44236641 -86.20017534 914.4362025 -90.38636017 914.42846298 C-91.61192281 914.43360655 -92.83748545 914.43875011 -94.10018635 914.44404954 C-95.78034855 914.43715134 -95.78034855 914.43715134 -97.49445343 914.43011379 C-98.46062969 914.43033116 -99.42680595 914.43054853 -100.42226028 914.43077248 C-103.30542903 914.16072432 -105.4329839 913.30066138 -108.08655548 912.18122482 C-108.10368577 825.43874789 -108.1195865 738.69627074 -108.12889862 651.95379257 C-108.12903668 650.67106947 -108.12917473 649.38834636 -108.12931698 648.06675286 C-108.13223664 620.87206542 -108.13495619 593.67737798 -108.13743516 566.4826905 C-108.13868059 552.82256904 -108.13996556 539.16244757 -108.14128792 525.50232612 C-108.14148717 523.44170588 -108.14168529 521.38108565 -108.14188336 519.32046542 C-108.14494454 487.57741667 -108.14885559 455.83436831 -108.15522003 424.09132004 C-108.15535693 423.40844732 -108.15549383 422.7255746 -108.15563488 422.02200877 C-108.15784734 411.01158064 -108.16013091 400.00115252 -108.16242392 388.99072441 C-108.17200536 342.97557914 -108.17840774 296.96043482 -108.18047047 250.94528846 C-108.18075865 244.5507684 -108.18108429 238.15624834 -108.18143272 231.76172829 C-108.18150015 230.50312877 -108.18156757 229.24452926 -108.18163704 227.94779036 C-108.18282121 207.64415058 -108.18746588 187.34051298 -108.19338751 167.03687409 C-108.19925981 146.65132101 -108.20152722 126.26577009 -108.20005686 105.88021619 C-108.19929319 93.75169921 -108.20135143 81.62319014 -108.20735302 69.49467457 C-108.21108271 61.40887001 -108.2112335 53.32307068 -108.20838729 45.23726576 C-108.20686699 40.61983787 -108.20698492 36.00242501 -108.21143866 31.38499869 C-108.21545064 27.1940628 -108.21495941 23.00315384 -108.21069546 18.81221842 C-108.20997439 17.29623674 -108.21097164 15.78025314 -108.21379073 14.26427391 C-108.21734946 12.22297544 -108.21426477 10.1816685 -108.21075398 8.14036995 C-108.21090996 7.00498699 -108.21106594 5.86960402 -108.21122665 4.69981552 C-108.08655548 2.18122482 -108.08655548 2.18122482 -107.08655548 1.18122482 C-103.90601998 1.01625441 -100.74638576 0.9196581 -97.56311798 0.86481857 C-96.52429474 0.84390152 -95.4854715 0.82298447 -94.41516876 0.80143356 C-90.84738701 0.73334193 -87.27954242 0.67500874 -83.71155548 0.61872482 C-82.46702606 0.5982106 -81.22249664 0.57769638 -79.94025421 0.55656052 C-53.29530689 0.13259639 -26.6479043 0.0401645 0 0 Z M317.91344452 510.18122482 C318.91344452 513.18122482 318.91344452 513.18122482 318.91344452 513.18122482 Z " fill="#0188FE" transform="translate(1150.086555480957,52.81877517700195)"/>
<path d="M0 0 C0.86487156 0.00177289 1.72974312 0.00354579 2.62082291 0.00537241 C3.61966255 0.00497595 4.6185022 0.00457949 5.64760971 0.00417101 C6.76414177 0.00885952 7.88067383 0.01354803 9.03104019 0.01837862 C10.80741238 0.01987684 10.80741238 0.01987684 12.61967087 0.02140534 C15.96076094 0.02521259 19.30178772 0.03356309 22.64286137 0.04365072 C26.30933775 0.05359887 29.97582115 0.05771923 33.64230728 0.06248605 C40.20312651 0.07173228 46.76393199 0.08451104 53.32474136 0.09910524 C63.49275678 0.12145001 73.66077384 0.13500609 83.82880628 0.14681996 C135.58886902 0.20713001 187.34888075 0.30667284 239.10887527 0.40878046 C244.18498097 0.41876387 249.26108672 0.42871472 254.33719254 0.43863618 C255.59816376 0.44110218 256.85913498 0.44356817 258.15831745 0.44610889 C278.75294493 0.48617082 299.34757797 0.51880249 319.94222236 0.54875319 C341.21799002 0.57984559 362.49373444 0.61840459 383.76947594 0.66404343 C396.83302799 0.69184038 409.89656325 0.71391057 422.96013683 0.72851588 C431.87083419 0.73904217 440.78149835 0.75684745 449.69217068 0.78042041 C454.82590315 0.79378977 459.9595891 0.8039513 465.09333992 0.80546701 C469.79258641 0.8069255 474.49172073 0.817545 479.19093275 0.83538778 C480.88763986 0.84022733 482.58436052 0.84173823 484.28107309 0.83953218 C502.11295969 0.82015439 515.71608782 3.3504501 529.05545425 16.12125337 C539.83032107 28.23818545 544.02722529 43.44455853 548.11795425 58.74625337 C548.55576177 60.35393897 548.99424454 61.96144083 549.43338394 63.56876314 C551.85697415 72.47656771 554.18751733 81.40466341 556.36868668 90.37515962 C557.96963781 96.92290158 559.81150646 103.39002108 561.6897316 109.86295259 C563.6910094 116.78071551 565.57637678 123.72521457 567.43045425 130.68375337 C569.91045458 139.98583279 572.50785299 149.24774561 575.18045425 158.49625337 C577.68801362 167.18239149 580.06423651 175.87627456 582.18953323 184.66361177 C583.57835902 190.34648487 585.12653528 195.96607518 586.7624855 201.58219087 C590.37636641 214.11425756 593.74694562 226.70961999 597.11795425 239.30875337 C601.8361451 256.92240266 606.61918647 274.51272162 611.57547379 292.06095064 C614.69495531 303.12328945 617.69850419 314.21309485 620.64578629 325.32242525 C623.97170672 337.84947066 627.35512563 350.36082686 630.74295425 362.87125337 C631.0189949 363.89155641 631.29503555 364.91185945 631.57944107 365.96308076 C635.8520592 381.75370961 640.19210346 397.52382183 644.62771988 413.26944673 C648.23773179 426.09443127 651.72654135 438.94984801 655.17166519 451.81998384 C660.58659734 472.05889901 660.58659734 472.05889901 666.15286636 492.25650728 C667.89245348 498.49171139 669.568854 504.74319302 671.24295425 510.99625337 C674.2352115 522.16431624 677.32538179 533.3032962 680.43527603 544.43897188 C684.46775825 558.89008802 688.36621797 573.37568275 692.21268082 587.87735689 C694.26055029 595.5771665 696.35978787 603.25157374 698.6374855 610.88687837 C700.9389454 618.60331174 702.96669852 626.374258 704.93045425 634.18375337 C707.27638743 643.41843583 709.70996832 652.61336506 712.43045425 661.74625337 C715.31214357 671.43584109 717.99654506 681.17135386 720.61795425 690.93375337 C724.59083308 705.72293498 728.60959363 720.49898851 732.66284561 735.26636446 C733.29823949 737.58138916 733.93327116 739.8965133 734.56793594 742.21173799 C735.46000899 745.46567894 736.35323089 748.71930211 737.2468605 751.97281587 C737.65086075 753.4467959 737.65086075 753.4467959 738.06302261 754.9505533 C738.31132828 755.85331499 738.55963394 756.75607667 738.81546402 757.68619478 C739.03178986 758.47394289 739.24811569 759.26169099 739.47099686 760.07331026 C739.95497982 761.76919021 740.49775825 763.44816536 741.05545425 765.12125337 C739.76697307 756.09801868 738.13566873 747.16912595 736.31320572 738.24054658 C735.53209789 734.41301117 734.7609267 730.5834713 733.989048 726.75406587 C733.82934525 725.96278795 733.66964249 725.17151002 733.50510025 724.35625398 C731.92087108 716.4894533 730.39492188 708.61167963 728.87421036 700.73239839 C726.87359657 690.36927123 724.86076949 680.01092018 722.68045425 669.68375337 C720.25263001 658.17770775 717.92797009 646.65142883 715.61795425 635.12125337 C715.42191605 634.14275423 715.22587784 633.16425508 715.02389908 632.15610445 C712.30466585 618.56330266 709.65313349 604.96068085 707.17093277 591.32242525 C705.85265164 584.13792056 704.4142522 576.98771613 702.910923 569.84000337 C700.55738191 558.64146007 698.29908303 547.4250522 696.0593605 536.20328462 C695.88077122 535.30881309 695.70218193 534.41434156 695.51818085 533.49276483 C694.02928527 526.03430276 692.5428547 518.57534985 691.05655289 511.11637056 C689.76696827 504.64511291 688.47631538 498.17406948 687.1843605 491.70328462 C687.00572527 490.80825542 686.82709003 489.91322622 686.64304161 488.99107492 C684.14295631 476.47130493 681.60375568 463.96063639 678.97807693 451.46654451 C677.36672973 443.7675467 675.90121457 436.04733791 674.49295425 428.30875337 C672.98698987 420.05670301 671.41340239 411.82881449 669.68045425 403.62125337 C667.71242274 394.29798374 665.79812052 384.96510636 663.93045425 375.62125337 C663.78982559 374.91809999 663.64919693 374.21494661 663.50430679 373.49048555 C661.42562032 363.08672668 659.37708046 352.67711832 657.33670425 342.26578462 C657.0979155 341.0478119 656.85912674 339.82983919 656.61310196 338.57495821 C655.42354738 332.50618328 654.23576523 326.43707053 653.05105972 320.36734712 C650.68634004 308.27449869 648.25888309 296.19826149 645.72737503 284.13918245 C644.32244348 277.43821322 642.99315094 270.72789494 641.74295425 263.99625337 C639.89460335 254.21952902 637.88481626 244.48372489 635.81253433 234.7527231 C631.62267989 215.07533498 627.72834053 195.34704695 623.89682388 175.59712923 C621.42739809 162.8722112 618.92923696 150.15293369 616.43045425 137.43375337 C616.08005081 135.64978654 616.08005081 135.64978654 615.72256851 133.82977998 C612.83084757 119.11081971 609.93004762 104.39373313 606.99295425 89.68375337 C606.85274857 88.98013673 606.71254288 88.27652009 606.56808853 87.55158174 C606.17827714 85.59671761 605.78682683 83.6421805 605.395298 81.68765962 C605.16511978 80.53636568 604.93494156 79.38507173 604.69778824 78.19889009 C604.15243275 75.58590974 603.54010574 73.00471105 602.89920425 70.41422212 C599.35103463 54.59368976 601.34251127 39.0586769 609.86795425 25.37125337 C610.90638742 23.93685201 611.96952119 22.52003858 613.05545425 21.12125337 C613.6174855 20.37230806 614.17951675 19.62336275 614.75857925 18.85172212 C623.13144597 8.52635917 633.95757229 2.72950235 647.05545425 1.12125337 C655.76114359 0.56077899 664.50604452 0.74163742 673.22464371 0.7806772 C675.87678315 0.78152433 678.52889768 0.7811784 681.18103409 0.77934968 C686.86994886 0.7777842 692.55875962 0.78711701 698.24764824 0.8040632 C706.47259121 0.82854777 714.6974844 0.83626809 722.92245986 0.84002718 C736.2701238 0.84657691 749.61773242 0.86649773 762.96536636 0.89493501 C775.9236969 0.922514 788.88201236 0.94372873 801.84036636 0.95645845 C802.64045277 0.95724662 803.44053917 0.95803479 804.26487062 0.95884684 C808.27906745 0.96276224 812.29326438 0.9665533 816.30746138 0.97028255 C849.55683259 1.00133238 882.80613599 1.05412765 916.05545425 1.12125337 C916.10688162 78.07597567 916.15457886 155.03070004 916.18248367 231.98543489 C916.18289784 233.12469921 916.18331202 234.26396354 916.18373874 235.43775103 C916.19271782 260.19805082 916.20102831 284.9583508 916.20865024 309.71865105 C916.2123922 321.86139678 916.21628187 334.00414247 916.22024918 346.14688814 C916.22064145 347.3552263 916.22103373 348.56356446 916.22143789 349.80851892 C916.23421803 388.9621857 916.25674905 428.11583948 916.28434592 467.26949839 C916.31265775 507.51070135 916.33111385 547.75189712 916.33719922 587.99310988 C916.33806367 593.67912667 916.33904058 599.36514345 916.34008598 605.05116022 C916.34028825 606.17023107 916.34049052 607.28930192 916.34069892 608.44228401 C916.34424171 626.44383083 916.35814954 644.44535538 916.37595036 662.44689312 C916.3936318 680.55201935 916.40035325 698.65712354 916.39595839 716.76225809 C916.39367964 727.51395578 916.39973316 738.2655727 916.41784688 749.01725578 C916.42913217 756.20828175 916.42942026 763.39925508 916.42094969 770.59028474 C916.41643939 774.68193437 916.41653609 778.7734317 916.4301038 782.86506472 C916.52464136 813.18279814 914.78160402 844.76472705 894.05545425 869.12125337 C893.39545425 869.12125337 892.73545425 869.12125337 892.05545425 869.12125337 C891.78990738 869.70390962 891.5243605 870.28656587 891.25076675 870.88687837 C889.15404572 874.80623926 886.05234736 877.86867296 883.05545425 881.12125337 C882.46764175 881.77480806 881.87982925 882.42836275 881.27420425 883.10172212 C872.74440685 892.15559606 862.03415488 898.46661359 851.05545425 904.12125337 C850.41736832 904.48863618 849.77928238 904.856019 849.1218605 905.23453462 C843.62505324 908.29619716 837.70341175 909.67918563 831.64139175 911.19156587 C828.15469523 912.03478296 828.15469523 912.03478296 825.25415629 913.14079237 C814.15020405 916.54435794 800.83661539 915.26504899 789.29817581 915.24823701 C787.55169083 915.24939178 785.80520608 915.25098168 784.05872184 915.25296426 C779.3004474 915.25710858 774.54219322 915.25508923 769.78391874 915.25197804 C764.63670239 915.24970416 759.48948939 915.25321336 754.34227371 915.25595796 C744.27642619 915.26039295 734.21058615 915.25944944 724.14473834 915.25654532 C715.96344959 915.25428298 707.78216292 915.25398236 699.60087395 915.25506914 C698.43459108 915.25522237 697.26830822 915.2553756 696.06668345 915.25553348 C693.69714977 915.25585322 691.32761609 915.25617743 688.95808242 915.25650607 C666.76692627 915.25935404 644.57577426 915.25608421 622.3846188 915.2507057 C603.35098571 915.24623534 584.31735872 915.24701683 565.28372574 915.25162446 C543.16187989 915.2569772 521.04003766 915.25908251 498.91819125 915.2560122 C496.55911275 915.25569366 494.20003424 915.25537929 491.84095573 915.25506914 C490.10002184 915.25483772 490.10002184 915.25483772 488.32391756 915.25460164 C480.15159594 915.2537388 471.97927661 915.25519427 463.80695534 915.25754869 C453.84934002 915.26035451 443.89173259 915.25959175 433.93411817 915.25426795 C428.8554274 915.25164198 423.77674976 915.25060723 418.69805908 915.2539171 C414.04677874 915.25690258 409.39552368 915.25524975 404.74424563 915.24993955 C403.0641775 915.24882501 401.38410723 915.24938511 399.70404049 915.25181533 C381.28850055 915.27640475 381.28850055 915.27640475 375.05545425 914.12125337 C374.72545425 913.79125337 374.39545425 913.46125337 374.05545425 913.12125337 C372.64558987 912.81698777 371.22676615 912.55404429 369.80545425 912.30875337 C360.25790932 910.44016243 351.56326223 907.93323792 343.364048 902.59390962 C341.24279916 901.24076103 339.13622464 900.19836501 336.86795425 899.12125337 C314.46684875 886.86253788 299.70952945 861.50871715 292.6284523 837.81510103 C290.09904823 828.97565826 288.88914552 820.86009583 288.80545425 811.68375337 C288.79602798 810.92087007 288.78660172 810.15798677 288.7768898 809.37198579 C288.83434366 799.11809841 291.13330059 789.16405923 293.55545425 779.24625337 C293.80682144 778.20670503 294.05818863 777.16715669 294.317173 776.09610689 C297.18125947 764.39016195 300.28202349 752.74558542 303.3706398 741.09732759 C305.77146435 732.03808916 308.12467549 722.97112004 310.36795425 713.87125337 C312.19955547 706.44326813 314.14706629 699.06289767 316.23245621 691.70230806 C317.98870858 685.46694234 319.57121095 679.19416933 321.09280777 672.89762056 C322.35654604 667.7273285 323.75183189 662.60019772 325.192173 657.47672212 C328.90862649 644.21885953 332.33869106 630.88354896 335.81302261 617.5607065 C336.54401954 614.7589268 337.27637899 611.95750414 338.00877953 609.15609109 C341.83001797 594.53911245 345.63279993 579.9174061 349.410923 565.28922212 C349.73377777 564.0399846 350.05663254 562.79074708 350.38927078 561.50365388 C351.83998873 555.87906171 353.27200727 550.25160539 354.65823746 544.61075532 C355.62759479 540.7087574 356.74757089 536.92487291 358.05545425 533.12125337 C358.66732251 530.80926185 359.25556193 528.49093795 359.8249855 526.16812837 C360.156975 524.82306598 360.48900788 523.4780143 360.82107925 522.13297212 C360.99188004 521.43736177 361.16268082 520.74175142 361.33865738 520.02506196 C366.0574349 500.82346821 366.0574349 500.82346821 368.55545425 492.12125337 C371.13055428 483.13674382 373.33730038 474.06063572 375.58319473 464.98978364 C377.7139204 456.39147023 379.90535279 447.82111281 382.332798 439.30094087 C384.06241132 433.20054796 385.60387483 427.05888299 387.09329605 420.89566743 C388.38376237 415.61592028 389.81214377 410.38082054 391.28201675 405.14859712 C394.67539168 393.04028314 397.78887677 380.85928171 400.93045425 368.68375337 C401.52275263 366.39269908 402.11519998 364.1016833 402.707798 361.8107065 C403.89078104 357.23644046 405.07333779 352.66206464 406.25540543 348.08756196 C406.54934189 346.9501053 406.84327835 345.81264863 407.14612198 344.64072359 C407.76772395 342.23488174 408.38915573 339.82899592 409.01044083 337.42307222 C409.95564215 333.76366675 410.90193126 330.10454401 411.848423 326.44547212 C412.13430283 325.33764879 412.42018265 324.22982545 412.71472549 323.08843172 C414.24794627 317.16501232 415.82563323 311.25831707 417.49295425 305.37125337 C420.16736788 295.8579949 422.61374113 286.28832913 425.07168961 276.71720064 C425.34015701 275.67197237 425.34015701 275.67197237 425.614048 274.60562837 C425.79947159 273.8836728 425.98489517 273.16171724 426.17593765 272.41788423 C429.24963097 260.46272452 432.36738077 248.51893476 435.47635269 236.57291353 C436.31660249 233.34425609 437.15677022 230.11557732 437.9968605 226.88687837 C438.39990906 225.3378885 438.39990906 225.3378885 438.81110001 223.75760591 C440.30318994 218.02090591 441.79087292 212.28310733 443.270298 206.54312837 C446.41005899 194.36608046 449.63685731 182.22306885 453.05545425 170.12125337 C445.15343238 192.44491793 437.31729152 214.78905332 429.629673 237.18765962 C425.1064243 250.35528025 420.51165252 263.49259614 415.80789566 276.59683931 C411.51023196 288.59399359 407.36847571 300.64355176 403.23172379 312.69693696 C400.10141419 321.80978928 396.94278006 330.91286407 393.78531265 340.01633394 C392.98206464 342.3329098 392.17939163 344.6496845 391.37674332 346.96646821 C383.00310677 371.13179384 374.5565855 395.26982041 365.99100113 419.3678354 C361.60708427 431.70577393 357.27829426 444.06186061 352.98854446 456.4328531 C351.38993213 461.03874199 349.78479263 465.64235661 348.18045425 470.24625337 C345.10017067 479.0943117 342.04376254 487.95049307 338.99295425 496.80875337 C335.9299896 505.70231063 332.85088746 514.58961589 329.73221207 523.46378267 C327.63568214 529.43889297 325.57324299 535.42534613 323.51639175 541.41422212 C319.36312345 553.50456453 315.12984144 565.56196204 310.80838394 577.5931772 C307.37077649 587.18501582 304.04784481 596.81398373 300.74393082 606.4525522 C297.64091832 615.48222076 294.42503305 624.46705404 291.16849136 633.44229829 C288.79140658 640.01510958 286.53035367 646.61464489 284.35647964 653.25699556 C282.27508481 659.56973533 280.015845 665.81277421 277.74295425 672.05875337 C274.50810239 680.9496513 271.44496157 689.88264289 268.49295425 698.87125337 C265.90460935 706.7430469 263.20436502 714.53128592 260.18045425 722.24625337 C256.83142425 730.82063745 253.87152344 739.50517865 250.99295425 748.24625337 C245.12802555 766.04580661 238.97303236 783.73905636 232.75476456 801.41794527 C231.06097242 806.23784214 229.38341549 811.06271846 227.72893143 815.89624727 C219.18287146 840.86014096 210.40306528 862.71512633 192.05545425 882.12125337 C191.3387355 882.89082368 190.62201675 883.660394 189.88357925 884.45328462 C184.68247999 889.87924344 184.68247999 889.87924344 181.38357925 891.15250337 C180.23115738 891.63203462 180.23115738 891.63203462 179.05545425 892.12125337 C178.72545425 893.11125337 178.39545425 894.10125337 178.05545425 895.12125337 C176.348423 896.43765962 176.348423 896.43765962 174.24295425 897.68375337 C173.21234879 898.30443696 173.21234879 898.30443696 172.160923 898.93765962 C166.49769848 902.12125337 166.49769848 902.12125337 163.05545425 902.12125337 C163.05545425 902.78125337 163.05545425 903.44125337 163.05545425 904.12125337 C156.44717581 906.72481571 149.92111636 909.27280588 143.05545425 911.12125337 C141.6173747 911.64048436 140.17991991 912.16144759 138.74295425 912.68375337 C129.45569523 915.77052612 119.41874446 915.32480708 109.73514175 915.47281587 C108.33151889 915.49651478 106.92789854 915.52036309 105.52428055 915.54434907 C101.76967842 915.60654987 98.01500724 915.66158188 94.26025391 915.7137903 C91.92558445 915.74632123 89.59093856 915.78028375 87.25629044 915.81430757 C65.41081408 916.12580499 43.58756522 916.15038719 21.74295425 915.74625337 C20.53097366 915.72492342 19.31899307 915.70359346 18.0702858 915.68161714 C14.69404299 915.61934788 11.31813802 915.54855138 7.942173 915.47281587 C6.94458466 915.45291597 5.94699631 915.43301607 4.91917801 915.41251314 C4.02144165 915.38939058 3.12370529 915.36626802 2.1987648 915.34244478 C1.41728577 915.32388429 0.63580673 915.30532381 -0.16935349 915.28620088 C-1.94454575 915.12125337 -1.94454575 915.12125337 -2.94454575 914.12125337 C-3.04315469 912.13084627 -3.06977635 910.13687107 -3.06989491 908.14402282 C-3.07239843 906.83332185 -3.07490195 905.52262088 -3.07748133 904.17220169 C-3.07520399 902.69558082 -3.07283578 901.21896009 -3.07038689 899.74233949 C-3.07142865 898.18442054 -3.07290887 896.62650183 -3.07479125 895.06858367 C-3.07871772 890.74761245 -3.0763385 886.42666331 -3.0730133 882.10569242 C-3.07049307 877.41993958 -3.07372992 872.7341903 -3.07625663 868.04843795 C-3.07988176 859.82287489 -3.07975055 851.59731838 -3.07720947 843.371755 C-3.07344111 831.14044875 -3.07535335 818.90914807 -3.07841778 806.67784186 C-3.08369543 784.83809218 -3.0832224 762.99834542 -3.08033887 741.15859546 C-3.07782776 722.04677746 -3.07716453 702.93496054 -3.07836151 683.82314241 C-3.0784379 682.55762166 -3.07851428 681.29210092 -3.07859298 679.98823106 C-3.0789043 674.85165072 -3.07922269 669.71507038 -3.07955274 664.57849005 C-3.08183012 628.70888657 -3.08222677 592.83928353 -3.0784893 556.96968019 C-3.07841905 556.29316357 -3.07834881 555.61664695 -3.07827643 554.91962982 C-3.07713139 543.93245981 -3.07591197 532.94528981 -3.07468625 521.95811981 C-3.06982967 478.37789377 -3.07005508 434.7976708 -3.07491684 391.21744478 C-3.07613796 380.23590537 -3.07734899 369.25436597 -3.0784893 358.27282655 C-3.07855975 357.59671326 -3.0786302 356.92059998 -3.07870278 356.22399841 C-3.08247724 319.74991877 -3.08164822 283.27583935 -3.07930458 246.8017596 C-3.07898384 241.67429451 -3.078671 236.54682942 -3.07836151 231.41936433 C-3.07828243 230.15676187 -3.07820336 228.8941594 -3.07812188 227.59329626 C-3.07698225 208.4889623 -3.07831869 189.38462952 -3.08084106 170.28029573 C-3.08369345 148.56760327 -3.08300022 126.8549142 -3.07756032 105.14222217 C-3.0746131 92.97593033 -3.07444803 80.80964581 -3.07820649 68.64335415 C-3.08043678 60.53240434 -3.07907541 52.42146043 -3.07470173 44.31051149 C-3.07230651 39.67874029 -3.07154333 35.04698371 -3.07510771 30.41521293 C-3.07831011 26.21127329 -3.07700654 22.00736141 -3.07192705 17.80342384 C-3.07091018 16.2827378 -3.07161101 14.76204952 -3.07413299 13.24136523 C-3.07729096 11.19374008 -3.073806 9.14610778 -3.06989491 7.09848392 C-3.06979327 5.39012978 -3.06979327 5.39012978 -3.06968958 3.64726344 C-2.89794893 0.18070343 -2.89794893 0.18070343 0 0 Z " fill="#0088FE" transform="translate(1036.9445457458496,1029.8787466287613)"/>
<path d="M0 0 C1.07645356 -0.00262956 1.07645356 -0.00262956 2.17465365 -0.00531223 C4.58595968 -0.00997427 6.99720546 -0.00750617 9.40851402 -0.00507832 C11.15232879 -0.00694622 12.89614315 -0.00924684 14.63995683 -0.01194364 C19.43765206 -0.01807127 24.23532988 -0.01792689 29.03302813 -0.01674926 C34.20581552 -0.01654548 39.37859728 -0.02206206 44.55138206 -0.02680683 C54.69113563 -0.03512078 64.83088339 -0.03786207 74.97064008 -0.03841921 C83.21788039 -0.03889431 91.46511877 -0.04094878 99.71235847 -0.04411983 C123.10502069 -0.05293084 146.49767831 -0.05753887 169.89034219 -0.05678936 C171.15199655 -0.0567494 172.41365091 -0.05670945 173.71353722 -0.05666828 C174.97673709 -0.0566274 176.23993696 -0.05658652 177.54141562 -0.0565444 C197.98512638 -0.05613849 218.42881867 -0.06569293 238.8725241 -0.07980665 C259.87405591 -0.09419067 280.87557874 -0.10107562 301.87711561 -0.10021287 C313.66346476 -0.09988145 325.44979459 -0.10260398 337.2361393 -0.11339092 C347.27865222 -0.12252291 357.32113707 -0.12464933 367.36365236 -0.1178815 C372.48188404 -0.114629 377.60006195 -0.11451322 382.71828842 -0.12323475 C387.41672285 -0.13115799 392.1150614 -0.12960957 396.81349365 -0.12095062 C398.50075092 -0.11942826 400.18801555 -0.12118322 401.87526412 -0.12681069 C410.59910111 -0.15394723 419.20427846 0.12767225 427.88706589 1.01908684 C428.64706374 1.09660205 429.40706159 1.17411727 430.19008968 1.25398143 C450.6614598 3.5625807 471.30233403 12.2489878 485.80045128 27.12863445 C486.98961143 28.03355633 486.98961143 28.03355633 488.20279503 28.95675945 C492.61751005 32.64785953 495.53441505 37.43249952 498.80045128 42.12863445 C499.34056847 42.85179852 499.88068565 43.57496258 500.43717003 44.3200407 C518.31029359 69.04218274 517.03786966 100.64784836 514.55045128 129.50363445 C512.98112032 147.73608078 511.8477013 165.98528432 510.80045128 184.25363445 C510.75746155 185.00075947 510.71447182 185.74788448 510.67017937 186.51764965 C509.55082855 205.97707783 508.52203456 225.4388456 507.59140587 244.90829754 C507.53664085 246.05350872 507.48187584 247.1987199 507.42545128 248.37863445 C507.3708474 249.52062298 507.31624352 250.6626115 507.25998497 251.83920574 C506.02304519 277.46007045 504.45996459 303.06083379 502.88119316 328.66255474 C502.67612409 331.99270859 502.47220784 335.32293139 502.26852989 338.65317059 C501.9458322 343.92315444 501.6195013 349.19290118 501.29022026 354.46247768 C501.16782827 356.4270586 501.04641802 358.39170094 500.92603874 360.35640621 C500.75943187 363.06958102 500.58883358 365.78247598 500.4171505 368.49533367 C500.36934755 369.28666321 500.32154461 370.07799274 500.27229309 370.89330196 C500.00560674 375.03284863 499.53632909 379.04000505 498.80045128 383.12863445 C498.36597133 388.10063892 498.09424463 393.08403638 497.80045128 398.06613445 C497.75720726 398.78252087 497.71396324 399.49890728 497.6694088 400.23700237 C496.73196529 415.85810206 496.20505597 431.48556443 495.80045128 447.12863445 C499.35625773 433.94090406 501.8631741 420.62317052 504.30045128 407.19113445 C508.51833237 383.98559682 508.51833237 383.98559682 511.18520164 373.15362835 C512.93912168 365.85460346 514.3180131 358.48402598 515.71060753 351.1091032 C515.9022127 350.09494178 515.9022127 350.09494178 516.09768867 349.06029224 C517.02466329 344.14654817 517.94439443 339.23145791 518.86295128 334.31613445 C519.78676 329.37428386 520.71320981 324.43295185 521.64538956 319.49267292 C522.01106091 317.54816285 522.37239074 315.6028379 522.73357201 313.65748882 C523.78328107 308.08553357 524.9013232 302.56816722 526.31412315 297.07614422 C527.96966333 290.64000787 529.17966397 284.15085417 530.35904503 277.61300945 C530.83230129 275.03617716 531.30561022 272.45935455 531.7789669 269.8825407 C532.50962029 265.88346189 533.23701488 261.88379225 533.96378136 257.88400555 C538.5843917 232.47934241 538.5843917 232.47934241 541.79288292 220.33273602 C544.36599828 210.07234033 545.93483253 199.53489211 547.80045128 189.12863445 C552.52105267 162.79753412 552.52105267 162.79753412 554.81217003 154.08957195 C556.58884808 147.33374254 557.89740903 140.5423803 559.13248253 133.66769695 C559.43592079 131.98072704 559.43592079 131.98072704 559.74548912 130.25967693 C560.57856593 125.60204819 561.40501703 120.94333632 562.21964073 116.28244305 C568.16225957 82.41693499 574.54645702 46.85467332 602.80045128 24.12863445 C603.54939659 23.33715008 604.2983419 22.5456657 605.06998253 21.73019695 C609.45226474 17.5548036 614.73320184 14.95245128 620.02213097 12.09982586 C621.60274373 11.23660818 623.1605414 10.33190606 624.71451378 9.4216032 C630.59408084 6.15057646 636.39545106 4.2511238 642.92545128 2.81613445 C643.98832359 2.57685223 643.98832359 2.57685223 645.07266808 2.33273602 C661.13214283 -0.84513537 678.13086116 -0.01303439 694.41617393 0.01510906 C696.73407045 0.01539179 699.05196705 0.01523154 701.36986351 0.01466656 C707.60621 0.01438191 713.8425369 0.02022448 720.07887888 0.02724051 C726.6171213 0.03352981 733.15536426 0.03408224 739.69360924 0.03526592 C750.64947406 0.0378455 761.6053321 0.04424042 772.56119347 0.053195 C783.83625821 0.06240078 795.11132102 0.06946605 806.38638878 0.07370281 C807.08360372 0.07396554 807.78081865 0.07422826 808.49916132 0.07449894 C811.99754663 0.07580416 815.49593196 0.07706783 818.99431729 0.07831085 C847.9296999 0.08864553 876.86507549 0.10630574 905.80045128 0.12863445 C907.18329453 2.89432095 906.92615644 5.11910681 906.92695111 8.21608877 C906.92971085 9.52591398 906.9324706 10.83573918 906.93531397 12.18525606 C906.93332573 13.65569353 906.93124625 15.12613088 906.92908573 16.59656811 C906.9304309 18.15193916 906.93221394 19.70730989 906.93439797 21.26267999 C906.93915603 25.57192057 906.9376173 29.88114017 906.93512019 34.19038182 C906.93349505 38.86517318 906.9376213 43.5399599 906.94102937 48.21474981 C906.94619761 56.41954443 906.94759812 64.62433314 906.94657326 72.82912922 C906.94505299 85.02959226 906.94919967 97.23004874 906.95444788 109.43051051 C906.96413704 132.48379001 906.9669327 155.5370673 906.96750494 178.5903486 C906.96796381 196.38633949 906.9700186 214.18232951 906.97320557 231.97832012 C906.97410305 237.09371106 906.97499287 242.20910199 906.97588044 247.32449293 C906.97610149 248.59604894 906.97632254 249.86760495 906.97655029 251.17769296 C906.98270751 286.96120325 906.98665643 322.7447132 906.98620701 358.52822399 C906.98619123 359.89196463 906.98617549 361.25570526 906.9861598 362.61944589 C906.98608641 368.77691231 906.98599824 374.93437873 906.98590592 381.09184514 C906.98586479 383.83773663 906.98582464 386.58362812 906.9857846 389.32951961 C906.98576421 390.70388896 906.98574319 392.0782583 906.98572154 393.45262765 C906.9850411 436.92389771 906.99236126 480.39515964 907.00626183 523.86642742 C907.00976267 534.82063323 907.01323205 545.77483904 907.01652622 556.72904491 C907.0167291 557.40348229 907.01693197 558.07791967 907.01714099 558.77279454 C907.02802026 595.1594544 907.03000368 631.54611457 907.0292986 667.93277597 C907.02922397 673.04816691 907.02917526 678.16355785 907.02914429 683.27894878 C907.02912681 685.16838215 907.02912681 685.16838215 907.02910897 687.09598588 C907.02907813 707.41233785 907.03547807 727.72868297 907.04407655 748.0450329 C907.05253168 768.44380433 907.05355984 788.84256569 907.04696723 809.2413379 C907.04325733 821.37632833 907.0451466 833.51128826 907.05490957 845.64627549 C907.06087202 853.7376013 907.05965614 861.82890483 907.05243907 869.92022958 C907.0485257 874.53996756 907.04787229 879.15964616 907.05589642 883.77938014 C907.06311818 887.97357296 907.06130713 892.16765638 907.05197256 896.36184413 C907.05023663 897.87786807 907.05192642 899.39390035 907.05727376 900.90991586 C907.06400551 902.95366097 907.05741171 904.99743738 907.04999894 907.04118013 C907.05008716 908.17720748 907.05017538 909.31323483 907.05026628 910.48368725 C906.80045128 913.12863445 906.80045128 913.12863445 904.80045128 915.12863445 C902.03031743 915.37818211 902.03031743 915.37818211 898.41228485 915.37752342 C897.74595632 915.38013071 897.07962778 915.38273799 896.39310747 915.38542429 C894.13834281 915.39176983 891.88385185 915.38373325 889.62909508 915.37587261 C888.00504734 915.37745941 886.38100026 915.37992171 884.75695503 915.38318902 C880.27694424 915.38962948 875.7970232 915.38351362 871.31701827 915.37542474 C866.49211628 915.36886806 861.66722465 915.37379181 856.8423214 915.37730694 C847.38296042 915.38235854 837.92363429 915.3766951 828.46427764 915.36745664 C817.45710117 915.35709156 806.44993231 915.35714233 795.44275187 915.35762922 C775.80660654 915.35813032 756.17047746 915.34895583 736.534338 915.334445 C717.46532457 915.32036048 698.39632545 915.31327403 679.32730675 915.31393719 C677.56617295 915.31399712 677.56617295 915.31399712 675.76946069 915.31405827 C674.59743509 915.31409862 673.4254095 915.31413898 672.21786797 915.31418055 C650.53361168 915.31487 628.84936149 915.30898209 607.16510717 915.30002734 C599.48654944 915.29700743 591.80799284 915.29594735 584.12943459 915.29549503 C574.77446239 915.29481365 565.41950048 915.29035953 556.06453265 915.28116222 C551.28844117 915.27653751 546.51236287 915.2735012 541.736269 915.27475643 C537.36789609 915.27584885 532.99955234 915.27234911 528.63118552 915.26510791 C527.04706721 915.26328982 525.4629459 915.26316889 523.87882747 915.2648752 C521.73261672 915.26693172 519.58650233 915.2628908 517.44029999 915.25726891 C516.24602453 915.25656448 515.05174908 915.25586006 513.82128346 915.25513428 C509.04715833 915.05521387 509.04715833 915.05521387 506.80045128 914.12863445 C505.02833612 908.81228898 505.85807729 903.11921348 506.05045128 897.56613445 C506.07312065 896.88613384 506.09579002 896.20613323 506.11914635 895.50552654 C506.98382755 870.51511411 509.32876396 845.74091668 513.80045128 821.12863445 C514.14884327 819.15954876 514.49723234 817.19046255 514.845541 815.22136211 C520.56175872 783.04237295 527.95060536 749.52410653 543.16373253 720.3356657 C544.79566313 717.13801649 546.31285726 713.90482023 547.81656456 710.6457243 C550.42696347 704.990063 552.99208359 699.51319359 556.46451378 694.3278532 C558.41497815 691.11700103 560.02261742 687.75018164 561.67545128 684.37863445 C564.06009755 679.51947112 566.518782 674.7774516 569.30045128 670.12863445 C571.89148967 665.7791835 574.24978015 661.35501133 576.48795128 656.81613445 C583.48408093 642.63267658 590.75146108 628.58015156 598.57974815 614.83688641 C602.83015467 607.36120533 606.80963376 599.74508594 610.80045128 592.12863445 C612.11492613 589.62280772 613.42995996 587.11727797 614.74600792 584.61227703 C615.58624075 583.01248505 616.42535844 581.41210663 617.26309776 579.8110075 C619.23320252 576.05657988 621.23597345 572.32602599 623.30435753 568.6247282 C625.78211461 564.1889762 628.14155475 559.69737992 630.48795128 555.19113445 C633.87201175 548.71852841 637.34632095 542.3078034 640.92545128 535.94113445 C644.47057505 529.63188758 647.78493189 523.24669934 650.97061729 516.74948406 C653.45442373 511.72076816 656.22565315 506.91193875 659.09732628 502.0934782 C661.54752527 497.82810886 663.68901911 493.42630039 665.86295128 489.0153532 C671.18353828 478.27121805 676.8786881 467.71204177 682.73795128 457.25363445 C687.8263152 448.17062967 692.6483783 438.95626107 697.45230675 429.72043133 C703.26727225 418.54120754 709.15507247 407.42083403 715.31876183 396.4294157 C718.18653947 391.29453198 720.89045018 386.10179624 723.44888878 380.8044157 C724.77344541 378.18209982 726.21600841 375.64752949 727.68472862 373.10397625 C729.86269287 369.24797872 731.88118326 365.30661444 733.92545128 361.37863445 C734.90582622 359.50228335 735.88629696 357.6259823 736.86685753 355.7497282 C738.28649496 353.03011449 739.7057271 350.31029103 741.12418175 347.59006023 C745.54027163 339.12744913 750.00514899 330.70407695 754.67545128 322.37863445 C760.12214477 312.66355135 765.2381673 302.78231109 770.36295128 292.89474773 C772.88957266 288.03288967 775.44916481 283.18847741 778.00699425 278.34298992 C780.29012112 274.012796 782.55723847 269.67483319 784.80826378 265.3278532 C789.63526434 256.01333343 794.49733793 246.76573206 799.77701378 237.69894695 C804.02331698 230.31011967 807.87105039 222.68909284 811.80045128 215.12863445 C811.41220177 215.72627605 811.02395226 216.32391766 810.62393761 216.93966961 C808.08570502 220.83398101 805.48283181 224.5831223 802.55045128 228.19113445 C798.78195624 232.94344014 795.66382149 238.03485279 792.49283409 243.19333172 C790.1964208 246.92086209 787.8541034 250.56918067 785.30045128 254.12863445 C781.7788518 259.04888337 778.61261086 264.16739995 775.42593956 269.30734539 C772.31685937 274.31846509 769.11234756 279.24887238 765.80045128 284.12863445 C761.03283889 291.17169821 756.43254016 298.29214934 751.92545128 305.50363445 C747.88273557 311.96496541 743.67795533 318.24064177 739.18131065 324.39352703 C736.23864713 328.44089341 733.61251986 332.59009588 731.15201378 336.9450407 C729.80045128 339.12863445 729.80045128 339.12863445 727.96060753 341.37863445 C725.17578778 344.92386611 722.92574721 348.70235191 720.61295128 352.56613445 C713.7631029 363.88292675 706.67189111 374.95573711 699.10123253 385.80832195 C693.71634949 393.54952152 688.53729936 401.43293989 683.41763878 409.3512907 C682.83852745 410.24646404 682.25941612 411.14163738 681.66275597 412.06393719 C680.52794407 413.82085437 679.39566831 415.57941299 678.26627159 417.33981609 C676.1857001 420.56367509 674.13969702 423.7066615 671.73404503 426.69894695 C669.05891615 430.06042203 666.93903759 433.69528061 664.73795128 437.37863445 C655.97162855 451.86849677 646.62495341 465.9551333 637.19425011 480.01974773 C636.53835899 480.9992741 635.88246788 481.97880047 635.20670128 482.98800945 C634.32981651 484.29463543 634.32981651 484.29463543 633.4352169 485.62765789 C632.30047762 487.36365986 631.22979143 489.14255592 630.21256065 490.94992352 C629.74656456 491.66889812 629.28056847 492.38787273 628.80045128 493.12863445 C628.14045128 493.12863445 627.48045128 493.12863445 626.80045128 493.12863445 C626.56455284 493.79894695 626.3286544 494.46925945 626.08560753 495.15988445 C624.47048891 498.89085754 622.41152268 502.20073122 620.23795128 505.62863445 C619.57086143 506.68812298 619.57086143 506.68812298 618.89029503 507.76901531 C615.42730346 513.22974474 611.79945497 518.55121398 608.08951378 523.84738445 C601.792957 532.84090257 595.8213484 541.94493482 590.38638878 551.48800945 C588.52694993 554.58402094 586.41233114 557.37370389 584.19107628 560.21457195 C582.7352334 562.21840063 581.58487968 564.25367954 580.42545128 566.44113445 C578.5631245 569.93250458 576.45502037 573.05948678 574.08951378 576.23019695 C570.03101887 581.75633437 566.26082911 587.42749864 562.55045128 593.19113445 C561.2425136 595.20848705 559.93391144 597.22540898 558.62467003 599.2419157 C557.98191124 600.23272137 557.33915245 601.22352703 556.67691612 602.24435711 C549.64326116 613.05565033 542.55279293 623.81494644 534.80045128 634.12863445 C534.2770919 634.8453532 533.75373253 635.56207195 533.21451378 636.30050945 C524.27167045 648.25338298 514.06357801 658.62305553 501.80045128 667.12863445 C500.95998253 667.71257977 500.11951378 668.29652508 499.25357628 668.8981657 C485.62871196 677.69199153 467.0060972 683.5159361 450.8649044 680.11374187 C437.36525705 676.94158018 425.23591475 671.40248611 414.80045128 662.12863445 C413.90842003 661.36679852 413.01638878 660.60496258 412.09732628 659.8200407 C405.90795577 654.40011379 400.67909342 648.74023057 395.80045128 642.12863445 C395.0089669 641.07933758 394.21748253 640.0300407 393.40201378 638.94894695 C376.54480507 616.27980939 366.1762382 590.02484217 357.05435753 563.4762907 C355.25656588 558.28891681 353.20692501 553.25459786 351.06143761 548.20309734 C348.78429655 542.6511056 346.84470671 536.97873597 344.86295128 531.31613445 C341.85370629 522.80238895 338.77865726 514.35934058 335.35513878 506.00363445 C329.96872291 492.74255187 325.18938556 479.21866172 320.25162315 465.78537273 C315.8684847 453.86394801 311.36827555 441.98870464 306.83414268 430.12399578 C304.59263333 424.24496804 302.39954038 418.34996606 300.23795128 412.44113445 C297.71944928 405.55817891 295.10166675 398.72035221 292.42520714 391.89743328 C290.00495925 385.70665128 287.70492875 379.4756644 285.42545128 373.23190594 C283.45572025 367.85526568 281.40139241 362.51770371 279.30045128 357.19113445 C276.42612574 349.89986672 273.79357867 342.54013751 271.28482628 335.11520672 C269.94662068 331.20038969 268.51547229 327.39910276 266.80045128 323.6325407 C264.71881166 319.05831322 263.08859981 314.38863138 261.48795128 309.62863445 C259.36445587 303.43169219 257.12742426 297.33826667 254.55045128 291.31613445 C250.50693435 281.82946693 247.17481766 272.08002155 243.79556847 262.3422575 C241.40563444 255.48122894 238.85246096 248.73567635 236.00601768 242.04782391 C233.48900728 235.95307027 231.3813023 229.70314 229.19498253 223.4841032 C226.99837436 217.29506335 224.61817989 211.23042788 222.05924034 205.18283367 C219.85282629 199.82941245 217.90437375 194.38180081 215.92545128 188.94113445 C212.72616345 180.20526458 209.44279825 171.5310862 205.78140831 162.97751141 C203.80045128 158.31966698 203.80045128 158.31966698 203.80045128 156.12863445 C203.14045128 156.12863445 202.48045128 156.12863445 201.80045128 156.12863445 C202.04859581 156.90319988 202.29674034 157.67776531 202.5524044 158.47580242 C205.5011483 167.84379952 207.88010628 177.29337392 210.15592003 186.8434782 C211.45112171 192.15907967 212.79488773 197.33503237 214.74967003 202.44894695 C217.24033535 209.01764247 218.86266545 215.79103224 220.54752159 222.59839153 C223.2192868 233.37298269 225.95655485 244.10229314 229.30045128 254.69113445 C232.49228681 264.8096543 235.20288935 275.02911627 237.88144493 285.29226971 C240.51738475 295.38535307 243.29334999 305.41663929 246.27481651 315.41427898 C248.48282648 322.88015669 250.44590447 330.39581464 252.36295128 337.94113445 C254.48131226 346.26856506 256.77299867 354.4703943 259.4586544 362.63107586 C262.27361248 371.32662248 264.53354631 380.17691958 266.82169151 389.02243328 C268.47357443 395.35825416 270.23891328 401.63073643 272.23404503 407.8669157 C275.35984433 417.66227446 277.87148905 427.60869575 280.42545128 437.56515789 C282.73012787 446.52818921 285.14056965 455.4129017 287.96404076 464.22719097 C290.12025774 471.01276621 291.90653855 477.88378052 293.68036461 484.77740765 C297.44069115 499.39190562 297.44069115 499.39190562 301.86295128 513.81613445 C305.01245311 523.29995321 307.40897402 532.97691144 309.82217979 542.66842937 C311.45058351 549.1490163 313.19981235 555.54863525 315.23795128 561.90988445 C317.83551742 570.02620673 319.99150059 578.23459416 322.10788536 586.48749065 C325.00883667 597.78456449 327.90853174 609.04234152 331.60831261 620.10861492 C334.50204141 628.94597082 336.66663505 638.00105013 338.91031456 647.02096844 C340.63551096 653.88710979 342.56233551 660.58596862 344.86295128 667.28024578 C346.40314332 671.95978237 347.57415254 676.71899454 348.73795128 681.50363445 C349.11971519 683.05220135 349.11971519 683.05220135 349.50919151 684.63205242 C351.85341811 694.20619821 354.04401687 703.81299674 356.19156456 713.43283367 C356.79558994 716.10711122 357.41802859 718.77642174 358.04654503 721.4450407 C363.35623806 744.08980633 367.22258755 766.89467303 370.34708214 789.93673992 C370.79239027 793.07188184 371.30137996 796.19173445 371.81607628 799.31613445 C373.09960981 807.59110682 373.72942699 815.90868351 374.36295128 824.25363445 C374.45958565 825.51016827 374.45958565 825.51016827 374.55817223 826.7920866 C375.6866582 841.56416591 376.5729983 856.31175858 376.80045128 871.12863445 C376.82042168 872.36326427 376.82042168 872.36326427 376.84079552 873.62283611 C376.92991605 879.3439615 376.99245465 885.06477145 377.02960777 890.78647137 C377.04345349 892.71595251 377.06179243 894.64540688 377.08472252 896.57480145 C377.11441309 899.28171433 377.12422776 901.98798356 377.12857628 904.6950407 C377.14086769 905.51764889 377.1531591 906.34025707 377.16582298 907.18779278 C377.15689659 909.47458172 377.15689659 909.47458172 376.80045128 913.12863445 C373.23220576 915.5074648 371.7146642 915.37831939 367.47943878 915.37752342 C366.83251648 915.38013071 366.18559419 915.38273799 365.51906818 915.38542429 C363.33632661 915.39175519 361.15386938 915.3837422 358.97113609 915.37587261 C357.39643556 915.37745987 355.82173571 915.37992263 354.24703777 915.38318902 C349.90803473 915.38962242 345.56912453 915.38351901 341.23012757 915.37542474 C336.55519127 915.36886266 331.8802656 915.373793 327.20532799 915.37730694 C318.04188242 915.38235627 308.87847286 915.37669791 299.71503176 915.36745664 C289.05020617 915.35708684 278.38538843 915.35714246 267.72055875 915.35762922 C248.69395932 915.35813022 229.66737668 915.34895847 210.64078331 915.334445 C192.16747291 915.3203608 173.69417728 915.31327403 155.22086143 915.31393719 C153.51473575 915.31399712 153.51473575 915.31399712 151.77414288 915.31405827 C150.0710039 915.3141188 150.0710039 915.3141188 148.33345807 915.31418055 C127.321201 915.31487016 106.30895023 915.30898116 85.29669521 915.30002734 C77.85854604 915.29700857 70.42039802 915.29594748 62.98224831 915.29549503 C53.91901328 915.29481335 44.85578885 915.29035509 35.79255833 915.28116222 C31.16620561 915.27654039 26.53986646 915.27350015 21.91351128 915.27475643 C17.68082326 915.27585009 13.44816528 915.27234148 9.21548353 915.26510791 C7.68184808 915.26329215 6.14820954 915.26316664 4.61457397 915.2648752 C2.5340622 915.26693684 0.45364922 915.26288146 -1.62685394 915.25726891 C-2.78375445 915.25656448 -3.94065496 915.25586006 -5.13261306 915.25513428 C-7.94757743 915.13902734 -10.45318539 914.71411233 -13.19954872 914.12863445 C-13.21668201 827.74274016 -13.23258233 741.35684566 -13.24189186 654.97095013 C-13.24202992 653.69314652 -13.24216798 652.41534291 -13.24231022 651.09881798 C-13.24522999 624.00732259 -13.24794954 596.91582719 -13.2504284 569.82433175 C-13.25167381 556.21566916 -13.25295878 542.60700658 -13.25428116 528.99834399 C-13.25448041 526.94551006 -13.25467853 524.89267614 -13.2548766 522.83984221 C-13.25793711 491.22368331 -13.2618469 459.6075248 -13.26821327 427.99136639 C-13.26835017 427.31142984 -13.26848707 426.6314933 -13.26862812 425.93095261 C-13.27084053 414.96814513 -13.27312412 404.00533767 -13.27541716 393.04253021 C-13.28500234 347.20918069 -13.29140187 301.37583195 -13.29346371 255.54248134 C-13.29375188 249.17064693 -13.29407752 242.79881252 -13.29442596 236.42697811 C-13.29449339 235.17286516 -13.29456081 233.91875222 -13.29463028 232.62663584 C-13.29581365 212.40952818 -13.30045618 192.1924227 -13.30638076 171.97531592 C-13.31225834 151.66809086 -13.31451913 131.36086797 -13.3130501 111.05364208 C-13.31228744 98.97727748 -13.31433578 86.90092084 -13.32034626 74.82455768 C-13.32408381 66.76713453 -13.32422111 58.70971662 -13.32138053 50.65229311 C-13.31986442 46.05517643 -13.31996144 41.45807484 -13.3244319 36.86095975 C-13.32846445 32.68260062 -13.32793224 28.50426843 -13.3236887 24.32590973 C-13.3229718 22.82008797 -13.32394804 21.31426426 -13.32678397 19.80844499 C-13.33038305 17.76881158 -13.32723662 15.72916958 -13.32374722 13.68953598 C-13.3239032 12.55867645 -13.32405918 11.42781692 -13.32421989 10.26268893 C-13.19998883 7.13969824 -12.78258422 4.19631784 -12.19954872 1.12863445 C-8.08143799 0.14038113 -4.22934872 0.00232964 0 0 Z M813.80045128 210.12863445 C813.80045128 213.12863445 813.80045128 213.12863445 813.80045128 213.12863445 Z " fill="#0188FE" transform="translate(59.19954872131348,51.871365547180176)"/>
<path d="M0 0 C4.00563755 0.00256212 8.01127132 -0.00073314 12.01690831 -0.00324333 C19.02046545 -0.0068378 26.02401487 -0.00675611 33.02757236 -0.00419617 C43.44154182 -0.00040004 53.85550481 -0.0023544 64.26947423 -0.00540448 C82.86836693 -0.01065945 101.46725619 -0.01021836 120.06614922 -0.00732557 C136.33193964 -0.00480808 152.59772881 -0.00415423 168.8635194 -0.00534821 C170.48315067 -0.00546279 170.48315067 -0.00546279 172.13550178 -0.00557968 C176.51860318 -0.00589102 180.90170458 -0.00620942 185.28480598 -0.00653944 C226.3660007 -0.00959579 267.44719323 -0.00682852 308.52838762 -0.00144255 C345.04480379 0.00330851 381.56121648 0.00287332 418.07763263 -0.00190354 C459.11029491 -0.00725326 500.14295526 -0.00938475 541.17561784 -0.00629128 C545.54537042 -0.00597055 549.91512301 -0.00565771 554.2848756 -0.00534821 C555.36081462 -0.00526913 556.43675364 -0.00519006 557.54529688 -0.00510858 C573.81460629 -0.00396965 590.08391431 -0.00530398 606.35322353 -0.00782776 C624.83313339 -0.01068018 643.31303927 -0.00998656 661.79294864 -0.00454702 C672.14392451 -0.00160101 682.49489177 -0.00143307 692.84586743 -0.00519319 C699.74741706 -0.00742465 706.64895975 -0.00605996 713.55050835 -0.00168843 C717.4903883 0.00070495 721.43025107 0.00147366 725.37013051 -0.00209441 C729.60083213 -0.00588709 733.831491 -0.00205486 738.06219169 0.00262641 C739.302896 0.00028525 740.54360032 -0.00205592 741.82190173 -0.00446803 C742.93959346 -0.00196451 744.05728518 0.00053901 745.20884636 0.00311839 C746.17760244 0.00318615 747.14635852 0.00325391 748.14447084 0.00332372 C750.43676349 0.12846755 750.43676349 0.12846755 752.43676349 1.12846755 C752.50689794 12.35262989 752.55989186 23.57673839 752.59220001 34.80107688 C752.60772201 40.0154302 752.62870752 45.22963142 752.66308185 50.44389724 C752.69616405 55.49493611 752.71371708 60.54583058 752.72139522 65.5969696 C752.72685258 67.50465919 752.73750278 69.41234271 752.75395366 71.31996917 C752.9032301 89.38172858 752.04926784 108.11881007 745.43676349 125.12846755 C745.19973712 125.73819412 744.96271076 126.34792068 744.71850177 126.9761238 C739.24066618 140.81341849 732.06213557 153.73239023 722.43676349 165.12846755 C721.93145099 165.75495193 721.42613849 166.3814363 720.90551349 167.02690505 C713.23643422 176.23731888 704.26832792 184.49580389 693.96020099 190.6245613 C691.64583535 192.0038659 689.49809967 193.49532375 687.31176349 195.06596755 C659.02902259 213.95479808 620.9744602 220.42379372 587.64770099 215.9995613 C586.67620609 215.87127944 585.70471118 215.74299758 584.70377704 215.61082839 C569.80433996 213.56899846 554.9999433 210.89648493 540.18871662 208.30418777 C536.97120132 207.74268434 533.75262132 207.18742899 530.53403446 206.63210678 C510.06913922 203.09791197 489.66974782 199.29105899 469.2937152 195.27763366 C460.22879948 193.49374939 451.1488362 191.79524912 442.06176349 190.12846755 C441.11980121 189.95503829 440.17783893 189.78160903 439.20733234 189.60292434 C423.90831622 186.79123414 408.58967293 184.09609471 393.26488849 181.4292488 C392.32836318 181.26622142 391.39183788 181.10319404 390.42693302 180.93522643 C380.94658389 179.28532145 371.46559162 177.63923287 361.98280021 176.00341987 C340.4172762 172.28166425 318.89984151 168.40508258 297.43676349 164.12846755 C296.58932575 163.95997299 295.741888 163.79147842 294.86877033 163.61787795 C291.53484193 162.95449424 288.20145278 162.28844647 284.86815997 161.62187576 C266.86900248 158.04786633 248.80332889 154.90675334 230.71569415 151.81575393 C210.47813538 148.35686008 190.25633897 144.81864312 170.04603549 141.20399475 C167.91193554 140.82269836 165.77764023 140.44251588 163.64327594 140.06270217 C149.31409947 137.51176738 135.00938746 134.87875035 120.74595233 131.97963333 C108.01690915 129.4094945 95.22605467 127.18771857 82.43676349 124.94096755 C79.74429124 124.4662135 77.05195978 123.99066293 74.35961505 123.5151863 C68.1253175 122.41475131 61.89047236 121.31745397 55.65535709 120.22166252 C50.87201394 119.38097682 46.0888878 118.539067 41.30590412 117.69633865 C33.59982635 116.33866044 25.89338586 114.98305129 18.18676349 113.62846755 C17.00791583 113.42113998 15.82906818 113.2138124 14.61449787 113.00020217 C1.23184693 110.64787122 -12.15501819 108.33078361 -25.56323651 106.12846755 C-24.88403653 106.2986238 -24.20483655 106.46878005 -23.50505475 106.64409255 C-16.96332749 108.28406489 -10.42306384 109.92977019 -3.88423089 111.5812416 C-0.5260916 112.42918972 2.8324963 113.27524349 6.19237872 114.11626052 C20.98324982 117.82013085 35.66982379 121.71569142 50.26794025 126.1328926 C61.7991555 129.59446703 73.45389141 132.54424399 85.11955997 135.51031303 C98.3475972 138.88163781 111.52998853 142.4316226 124.72021076 145.94731521 C128.00874181 146.82367707 131.29782064 147.697937 134.58739826 148.57036209 C166.32528602 156.98834308 166.32528602 156.98834308 179.69031879 161.09891128 C188.12719132 163.68161801 196.65979457 165.88245843 205.20357868 168.0804634 C208.16194716 168.84174808 211.11894568 169.60817441 214.07567951 170.37578201 C221.1578868 172.21362415 228.24188922 174.04450148 235.32598468 175.87504959 C241.67682646 177.51659759 248.02649816 179.16256073 254.37426349 180.81596755 C255.25580097 181.04550125 256.13733844 181.27503494 257.04558917 181.51152419 C267.64710595 184.27779391 278.18813368 187.1779351 288.68676349 190.31596755 C304.38398046 194.99942807 320.25798889 199.00409014 336.12426349 203.06596755 C370.96596049 211.98703646 370.96596049 211.98703646 387.49926349 216.62846755 C388.21248767 216.82854415 388.92571185 217.02862075 389.66054889 217.23476028 C394.25468248 218.52542054 398.84585828 219.82637764 403.43676349 221.12846755 C423.16571024 226.70152055 442.9845192 231.87346244 462.83584186 236.99046707 C478.91210334 241.13782278 494.93586035 245.40901128 510.89745685 249.97783279 C528.96846592 255.14229591 547.0925015 260.08098213 565.28832599 264.78471755 C566.05242471 264.98232807 566.81652343 265.17993858 567.60377666 265.38353729 C574.66912053 267.20996768 581.73578797 269.03123968 588.80395099 270.84672927 C682.99253921 295.05154959 682.99253921 295.05154959 708.69848224 319.55034255 C710.90595996 321.62870959 713.14286796 323.54049377 715.49926349 325.44096755 C725.30886844 334.00652697 732.63282421 345.61536994 738.43676349 357.12846755 C738.81607013 357.87902419 739.19537677 358.62958084 739.58617755 359.40288162 C749.28824005 378.94099123 752.60275983 397.33974413 752.57047626 419.09132766 C752.57387459 420.80464096 752.57387459 420.80464096 752.57734158 422.55256664 C752.58362824 426.34724597 752.58285566 430.14188909 752.58202716 433.93657302 C752.58448118 436.67108671 752.58839758 439.40559792 752.59220477 442.14011001 C752.60047679 448.77934512 752.60325809 455.41857135 752.60381715 462.05781118 C752.60429415 467.46303903 752.60635805 472.86826397 752.60951778 478.2734909 C752.61831655 493.64099549 752.62293861 509.00849313 752.6221873 524.37600026 C752.62212737 525.61617177 752.62212737 525.61617177 752.62206622 526.88139724 C752.6220049 528.1231061 752.6220049 528.1231061 752.62194234 529.38989998 C752.62153656 542.78262937 752.63109117 556.17533055 752.64520459 569.56805179 C752.659624 583.36147129 752.66647166 597.15487708 752.66561082 610.94830429 C752.66528066 618.67526003 752.66794715 626.40218623 752.67878887 634.12913513 C752.68796767 640.71253881 752.69000954 647.29589959 752.68327944 653.87930695 C752.68005037 657.22790496 752.68094582 660.57635501 752.68863269 663.92495536 C752.75061403 692.82270107 750.48656891 720.54752934 741.43676349 748.12846755 C741.04400226 749.34131423 741.04400226 749.34131423 740.64330646 750.57866287 C737.2756982 760.88814974 733.59084624 770.68659177 728.43188068 780.2471199 C727.31311274 782.36223906 726.25333777 784.50223562 725.19457599 786.6479988 C719.98359429 797.07525254 714.02290253 806.25267237 706.79272052 815.38286209 C704.85302948 817.87994364 703.05809533 820.47318872 701.24926349 823.06596755 C698.06179289 827.48345793 694.51653187 831.23837756 690.59301349 835.0073738 C688.55936549 837.0078645 686.71382006 839.07526534 684.87426349 841.25346755 C681.96565281 844.63791085 678.84338752 847.55559006 675.43676349 850.43315505 C674.18430231 851.49481161 672.95123345 852.58028023 671.74926349 853.69878005 C661.50761714 863.1631586 649.28850574 870.85694728 637.43676349 878.12846755 C635.80287677 879.17067459 635.80287677 879.17067459 634.13598224 880.2339363 C604.99665057 898.57915004 570.00753018 909.19804053 535.93603107 912.85063552 C533.95361465 913.0710116 531.97717405 913.34503855 530.00414702 913.6377924 C524.62607155 914.30688512 519.27194097 914.26752618 513.85935947 914.25710201 C512.70492137 914.25885504 511.55048327 914.26060808 510.36106219 914.26241424 C507.16060178 914.26626083 503.96017833 914.26564753 500.75971775 914.26313647 C497.27640874 914.26150027 493.79310576 914.2656468 490.30979868 914.26904565 C484.20621312 914.27419584 478.10263548 914.27561751 471.99904796 914.27458953 C462.92303543 914.27306466 453.84703169 914.27722614 444.77102087 914.28246416 C427.62051229 914.29213571 410.47000671 914.29494829 393.31949573 914.29552122 C380.0803023 914.2959806 366.84111004 914.29803809 353.60191699 914.30122184 C349.7923981 914.30211936 345.98287921 914.30300917 342.17336031 914.30389672 C341.22634725 914.30411777 340.2793342 914.30433882 339.30362377 914.30456656 C312.66746307 914.31072047 286.03130277 914.31466714 259.39514133 914.31422328 C258.39090821 914.31420771 257.3866751 914.31419213 256.35201068 914.31417608 C251.26199218 914.31409297 246.17197368 914.31399393 241.08195519 914.31389137 C240.07103266 914.31387142 239.06011014 914.31385148 238.0185536 914.31383093 C235.9742249 914.31379049 233.92989619 914.31374869 231.88556749 914.31370554 C200.05676238 914.31309235 168.2279679 914.32060741 136.39916583 914.3342781 C100.65315318 914.34962488 64.90714751 914.35824524 29.16113135 914.35731488 C25.35286987 914.35724025 21.5446084 914.35719154 17.73634693 914.35716056 C16.79862944 914.35714891 15.86091196 914.35713725 14.8947788 914.35712525 C-0.21936291 914.35709443 -15.33349541 914.36349 -30.44763438 914.37209283 C-45.62330203 914.38055237 -60.79895613 914.38157257 -75.97462482 914.37498351 C-84.99873036 914.37127699 -94.02279488 914.37315297 -103.04689611 914.38292585 C-109.06693362 914.38889665 -115.08694121 914.38766294 -121.10697732 914.38045535 C-124.54194924 914.37654925 -127.9768414 914.3758682 -131.4118079 914.3839127 C-135.10434573 914.39089818 -138.79666698 914.38573827 -142.48919705 914.37735652 C-143.56575277 914.3823247 -144.64230849 914.38729288 -145.75148711 914.39241161 C-147.22183159 914.3852854 -147.22183159 914.3852854 -148.72187999 914.37801521 C-149.5667529 914.37810344 -150.41162582 914.37819166 -151.28210094 914.37828255 C-153.82783829 914.0994901 -155.42937563 913.53951534 -157.56323651 912.12846755 C-158.72595754 907.89898181 -158.68882246 903.684711 -158.69022015 899.31746292 C-158.69178209 898.65581494 -158.69334403 897.99416697 -158.6949533 897.31246906 C-158.69893169 895.10413951 -158.69579156 892.89587959 -158.69263104 890.68754959 C-158.69395861 889.09395845 -158.6957086 887.50036763 -158.69784669 885.90677738 C-158.7023438 881.56179457 -158.7005032 877.21683488 -158.69742302 872.87185168 C-158.69557708 869.19669694 -158.69731425 865.52154754 -158.6990988 861.84639304 C-158.70481791 850.00064177 -158.69864386 838.15491002 -158.69024638 826.30916166 C-158.68757699 822.25076333 -158.68573897 818.19236481 -158.68391547 814.13396602 C-158.64000068 717.92652763 -158.64000068 717.92652763 -158.27364758 678.01673507 C-158.25075313 675.31792737 -158.23330349 672.6191336 -158.21735028 669.92027664 C-158.1923929 665.8361086 -158.15305528 661.75237434 -158.10017613 657.66847419 C-158.08369673 656.24108974 -158.07196223 654.81364049 -158.06558827 653.38617515 C-158.05615215 651.50872889 -158.02655348 649.63141492 -157.99560956 647.75419998 C-157.9845065 646.72840331 -157.97340344 645.70260665 -157.96196393 644.64572524 C-157.56323651 642.12846755 -157.56323651 642.12846755 -156.3292735 640.36677932 C-154.19891911 638.87301507 -152.401564 638.31305308 -149.87427167 637.68974685 C-148.92122143 637.44906982 -147.9681712 637.20839279 -146.98624066 636.96042251 C-145.43493954 636.58534309 -145.43493954 636.58534309 -143.85229901 636.2026863 C-142.77435071 635.9326126 -141.6964024 635.6625389 -140.585789 635.38428115 C-137.12232416 634.51823565 -133.65556202 633.6664118 -130.18823651 632.81596755 C-125.67914624 631.69997416 -121.17160437 630.57786914 -116.66479901 629.4526863 C-115.53674344 629.17186202 -114.40868786 628.89103774 -113.24644879 628.60170364 C-106.71976536 626.96410986 -100.24708742 625.20835191 -93.79370526 623.3042488 C-78.28281166 618.75605579 -62.52369793 615.0966008 -46.82593182 611.25853347 C-42.55609457 610.2138442 -38.2872224 609.16522855 -34.01831463 608.1167488 C-32.33831232 607.70423036 -30.65830947 607.29171407 -28.97830609 606.87919998 C-27.3230212 606.47271106 -25.66773758 606.06621695 -24.01245526 605.65971755 C-23.20033455 605.46028549 -22.38821385 605.26085342 -21.55148343 605.05537795 C-16.80945406 603.89088096 -16.80945406 603.89088096 -12.06752232 602.72598648 C-8.62974202 601.88131328 -5.19175272 601.03753517 -1.75323895 600.19585037 C1.51282542 599.3957698 4.7777024 598.59103249 8.04223224 597.78471755 C8.92953525 597.5685176 9.81683826 597.35231765 10.73102924 597.12956619 C15.44944413 595.95852276 20.08922927 594.63542006 24.72875568 593.18144607 C31.48159212 591.07559018 38.29331214 589.31879226 45.15941974 587.6245613 C46.45626141 587.30179232 47.75302239 586.97869896 49.04970905 586.65530776 C51.78575509 585.97363131 54.52232864 585.29413351 57.25936481 584.61644363 C61.55165932 583.55359182 65.84256342 582.48519953 70.13329669 581.41606521 C81.9556707 578.47140282 93.78086083 575.53812433 105.6070058 572.60864639 C109.54704606 571.63200428 113.48645317 570.6528252 117.42574664 569.67317581 C120.0140507 569.03081977 122.60339734 568.39281429 125.19286701 567.75517654 C132.26749561 566.00289605 139.30802608 564.19077341 146.3015401 562.13643264 C162.78302746 557.29577787 179.49178216 553.33731363 196.17406818 549.25853347 C200.44390543 548.2138442 204.7127776 547.16522855 208.98168537 546.1167488 C210.66168768 545.70423036 212.34169053 545.29171407 214.02169391 544.87919998 C215.6769788 544.47271106 217.33226242 544.06621695 218.98754474 543.65971755 C219.79966545 543.46028549 220.61178615 543.26085342 221.44851657 543.05537795 C226.19054594 541.89088096 226.19054594 541.89088096 230.93247768 540.72598648 C234.37025798 539.88131328 237.80824728 539.03753517 241.24676105 538.19585037 C244.51282542 537.3957698 247.7777024 536.59103249 251.04223224 535.78471755 C251.92953525 535.5685176 252.81683826 535.35231765 253.73102924 535.12956619 C258.44944413 533.95852276 263.08922927 532.63542006 267.72875568 531.18144607 C274.48159212 529.07559018 281.29331214 527.31879226 288.15941974 525.6245613 C289.45626141 525.30179232 290.75302239 524.97869896 292.04970905 524.65530776 C294.78575509 523.97363131 297.52232864 523.29413351 300.25936481 522.61644363 C304.55165932 521.55359182 308.84256342 520.48519953 313.13329669 519.41606521 C324.9556707 516.47140282 336.78086083 513.53812433 348.6070058 510.60864639 C352.54704606 509.63200428 356.48645317 508.6528252 360.42574664 507.67317581 C363.0140507 507.03081977 365.60339734 506.39281429 368.19286701 505.75517654 C376.24954063 503.75973264 384.24596679 501.63270191 392.21410724 499.30815505 C405.45011981 495.46008696 418.83709562 492.20490229 432.21561023 488.89733505 C437.93003397 487.48282554 443.64190676 486.05801579 449.35428592 484.63527679 C451.47209397 484.10790485 453.58999733 483.58091702 455.70791217 483.05397415 C466.66911068 480.32575538 477.62139051 477.56409469 488.56176349 474.75346755 C489.32878589 474.55655319 490.09580829 474.35963882 490.88607379 474.15675735 C498.97498793 472.07785132 507.05607815 469.97098577 515.12816974 467.8276863 C518.12681954 467.0319319 521.12552024 466.23636973 524.12426349 465.44096755 C524.8615166 465.2452214 525.59876972 465.04947524 526.35836383 464.84779739 C545.11114618 459.87753706 563.94277728 455.21573571 582.77030345 450.53850555 C584.72824775 450.05205352 586.68608347 449.56516453 588.64391681 449.07826614 C591.06875965 448.47548542 593.49387859 447.87381397 595.91930744 447.27339553 C596.9990987 447.00505905 598.07888996 446.73672256 599.19140216 446.46025466 C600.1360181 446.22616393 601.08063403 445.99207321 602.0538747 445.75088882 C603.86706567 445.27727519 605.65890684 444.72108644 607.43676349 444.12846755 C606.50146808 444.27134704 605.56617267 444.41422653 604.60253497 444.56143569 C592.54818593 446.40225709 580.4928295 448.23642545 568.43676349 450.06596755 C567.46229896 450.21384593 566.48783443 450.36172431 565.48384067 450.51408386 C539.4658403 454.46055663 513.44011551 458.32350237 487.37426349 461.94096755 C453.6957382 466.618467 420.02568837 471.41206367 386.50561115 477.1299324 C354.6178262 482.51587588 322.5947886 487.1973318 290.56176349 491.62846755 C271.86232846 494.21524327 253.17547651 496.87859415 234.49926349 499.62846755 C233.84447891 499.72485141 233.18969432 499.82123527 232.51506778 499.92053985 C215.29371522 502.45747811 198.09950314 505.11482357 180.92876789 507.97304153 C163.37041613 510.8880082 145.7695662 513.50931663 128.16157504 516.1036148 C125.90517546 516.43640839 123.64896014 516.77042591 121.39278766 517.1047554 C80.64665361 523.13701882 80.64665361 523.13701882 64.68676349 523.75346755 C63.35814289 523.80930007 63.35814289 523.80930007 62.00268146 523.86626052 C33.95762275 524.9737724 6.46236949 523.28227924 -20.85327557 516.77104568 C-22.54516999 516.36986855 -24.23953105 515.97879809 -25.93725995 515.60307693 C-40.47330119 512.38140245 -53.39220561 505.93922807 -66.56323651 499.12846755 C-67.68665448 498.54911453 -67.68665448 498.54911453 -68.83276776 497.9580574 C-80.41486484 491.89573193 -92.5530636 483.71028286 -101.56323651 474.12846755 C-101.56323651 473.46846755 -101.56323651 472.80846755 -101.56323651 472.12846755 C-102.22323651 472.12846755 -102.88323651 472.12846755 -103.56323651 472.12846755 C-103.56323651 471.46846755 -103.56323651 470.80846755 -103.56323651 470.12846755 C-104.22323651 470.12846755 -104.88323651 470.12846755 -105.56323651 470.12846755 C-140.36781178 439.4185482 -152.64362395 387.06336764 -156.56323651 343.12846755 C-156.643531 342.46254183 -156.7238255 341.79661611 -156.80655316 341.11051082 C-157.89661749 331.24851259 -157.71922867 321.35257736 -157.72436932 311.4448738 C-157.72900466 309.35587858 -157.73403027 307.2668842 -157.73941449 305.17789077 C-157.7524722 299.52662051 -157.75897052 293.8753621 -157.76342515 288.22407913 C-157.76636684 284.68455728 -157.77047368 281.14503858 -157.77492932 277.60551834 C-157.78858728 266.50552194 -157.79826204 255.40553285 -157.80213121 244.30552864 C-157.8066068 231.53996793 -157.82413877 218.77451456 -157.85313181 206.00898647 C-157.87482627 196.10960901 -157.88483963 186.21026158 -157.88617233 176.31086063 C-157.88721488 170.41327968 -157.89300449 164.51579986 -157.91099194 158.61824417 C-157.92760731 153.06297515 -157.92956354 147.50788184 -157.92085293 141.95259666 C-157.92008969 139.92874107 -157.92432952 137.9048755 -157.93431119 135.88104438 C-158.1112749 97.72271765 -147.41923326 66.69380763 -122.26245526 37.7808113 C-120.56323651 36.12846755 -120.56323651 36.12846755 -118.56323651 36.12846755 C-118.33249432 35.5561238 -118.10175213 34.98378005 -117.86401776 34.39409255 C-108.03104393 17.26759159 -79.63132824 8.16591402 -61.56323651 3.12846755 C-41.71953064 -1.4932994 -20.24124723 -0.0186177 0 0 Z " fill="#0188FE" transform="translate(204.56323650944978,1029.8715324457735)"/>
<path d="M0 0 C2.92339002 2.92339002 3.88799123 6.58991481 5.29296875 10.40234375 C5.60325516 11.23584854 5.91354156 12.06935333 6.23323059 12.92811584 C6.88744636 14.69149214 7.53871244 16.45596516 8.18725586 18.22143555 C9.18369344 20.92716367 10.19578406 23.62668335 11.20898438 26.32617188 C11.84211019 28.03870628 12.4743033 29.75158587 13.10546875 31.46484375 C13.56314888 32.67901222 13.56314888 32.67901222 14.03007507 33.91770935 C16.11452375 39.65642874 16.11452375 39.65642874 15 43 C14.67 41.68 14.34 40.36 14 39 C13.34 39 12.68 39 12 39 C12.350625 39.7425 12.70125 40.485 13.0625 41.25 C14.0720098 44.21122875 13.87980884 45.12062561 13 48 C10.48967924 40.76752098 8.45143423 33.46346345 6.5 26.0625 C4.63295916 19.00606399 2.74775517 11.97785361 0.53320312 5.02124023 C0 3 0 3 0 0 Z " fill="#C3D1DC" transform="translate(249,169)"/>
<path d="M0 0 C0.33 0 0.66 0 1 0 C1 7.92 1 15.84 1 24 C1.66 22.68 2.32 21.36 3 20 C2.46588214 28.85898937 0.85710087 37.34520917 -1 46 C-1.33 46 -1.66 46 -2 46 C-1.0125055 14.88598505 -1.0125055 14.88598505 0 0 Z " fill="#A7CCE8" transform="translate(554,475)"/>
<path d="M0 0 C0.99 0 1.98 0 3 0 C3.86832448 4.0804554 4.71719228 8.1647197 5.5625 12.25 C5.80935547 13.40886719 6.05621094 14.56773438 6.31054688 15.76171875 C6.53935547 16.87675781 6.76816406 17.99179688 7.00390625 19.140625 C7.21861572 20.16704102 7.4333252 21.19345703 7.65454102 22.25097656 C7.98656338 24.8930768 7.85728404 26.50892539 7 29 C6.01641759 25.29282359 5.03892329 21.58406788 4.0625 17.875 C3.78470703 16.82828125 3.50691406 15.7815625 3.22070312 14.703125 C2.95322266 13.68476562 2.68574219 12.66640625 2.41015625 11.6171875 C2.16402588 10.68503418 1.91789551 9.75288086 1.66430664 8.79248047 C0.97046497 5.8758465 0.46049132 2.96166616 0 0 Z " fill="#8CBDE5" transform="translate(1778,1799)"/>
<path d="M0 0 C0.66 0.33 1.32 0.66 2 1 C-4.27 7.27 -10.54 13.54 -17 20 C-17.66 19.67 -18.32 19.34 -19 19 C-17.71520959 17.49410612 -16.42195918 15.99542625 -15.125 14.5 C-14.40570313 13.6646875 -13.68640625 12.829375 -12.9453125 11.96875 C-12.30335937 11.3190625 -11.66140625 10.669375 -11 10 C-10.34 10 -9.68 10 -9 10 C-8.74476562 9.40703125 -8.48953125 8.8140625 -8.2265625 8.203125 C-6.88183502 5.78775462 -5.50785633 4.48788294 -3.375 2.75 C-2.74335937 2.22921875 -2.11171875 1.7084375 -1.4609375 1.171875 C-0.73777344 0.59179688 -0.73777344 0.59179688 0 0 Z " fill="#5AAEF4" transform="translate(95,1056)"/>
<path d="M0 0 C2.13893584 2.13893584 2.70116923 3.47909268 3.7265625 6.28125 C4.0359375 7.12300781 4.3453125 7.96476563 4.6640625 8.83203125 C4.98117188 9.71246094 5.29828125 10.59289062 5.625 11.5 C5.94984375 12.38042969 6.2746875 13.26085937 6.609375 14.16796875 C9 20.72712054 9 20.72712054 9 23 C8.34 23 7.68 23 7 23 C6.67 23.66 6.34 24.32 6 25 C5.18293833 21.9595402 4.3721798 18.91743317 3.5625 15.875 C3.33240234 15.0190625 3.10230469 14.163125 2.86523438 13.28125 C1.69469613 8.87052617 0.64543654 4.52547458 0 0 Z " fill="#A7C7E0" transform="translate(249,169)"/>
<path d="M0 0 C0.66 0.33 1.32 0.66 2 1 C-2.62 5.62 -7.24 10.24 -12 15 C-12 10.91678393 -10.42111745 9.89782894 -7.6875 6.9375 C-6.88699219 6.05964844 -6.08648438 5.18179687 -5.26171875 4.27734375 C-3 2 -3 2 0 0 Z " fill="#3C9EF5" transform="translate(1661,1040)"/>
<path d="M0 0 C0.33 0.66 0.66 1.32 1 2 C-0.07674702 4.28258633 -1.19546116 6.4356434 -2.4375 8.625 C-2.77587891 9.23601562 -3.11425781 9.84703125 -3.46289062 10.4765625 C-4.30146192 11.988353 -5.14982577 13.49470399 -6 15 C-6.99 15 -7.98 15 -9 15 C-7.61219205 11.10993227 -5.7847773 8.03441292 -3.375 4.6875 C-2.74335937 3.80449219 -2.11171875 2.92148438 -1.4609375 2.01171875 C-0.97882812 1.34785156 -0.49671875 0.68398437 0 0 Z " fill="#C5D5E0" transform="translate(881,248)"/>
<path d="M0 0 C0.99 0 1.98 0 3 0 C3.98248524 4.0527516 4.08159574 7.83861737 4 12 C1.49484216 9.49484216 0.94900914 7.38931835 0 4 C0 2.68 0 1.36 0 0 Z " fill="#B6CDE0" transform="translate(1778,1799)"/>
<path d="M0 0 C0.33 0.66 0.66 1.32 1 2 C1.66 2 2.32 2 3 2 C5.125 6.625 5.125 6.625 4 10 C3.896875 9.360625 3.79375 8.72125 3.6875 8.0625 C3.460625 7.381875 3.23375 6.70125 3 6 C2.01 5.67 1.02 5.34 0 5 C0 3.35 0 1.7 0 0 Z " fill="#E3ECF4" transform="translate(260,202)"/>
<path d="M0 0 C1.74627478 2.61941217 2.38722388 4.03824877 3 7 C2.34 7 1.68 7 1 7 C0.67 7.66 0.34 8.32 0 9 C-1.125 2.25 -1.125 2.25 0 0 Z " fill="#B4CCDE" transform="translate(255,185)"/>
</svg>
